<mxfile host="app.diagrams.net" modified="2024-01-14T21:18:32.111Z" agent="Mozilla/5.0 (Windows NT 10.0; Win64; x64) AppleWebKit/537.36 (KHTML, like Gecko) Chrome/120.0.0.0 Safari/537.36" etag="mr51OYW13MYdC8C595_p" version="22.1.18" type="github">
  <diagram name="Page-1" id="pWgt5meZVzBBjn0B41I3">
    <mxGraphModel dx="2951" dy="964" grid="1" gridSize="10" guides="1" tooltips="1" connect="1" arrows="1" fold="1" page="1" pageScale="1" pageWidth="827" pageHeight="1169" background="#FFCCCC" math="0" shadow="0">
      <root>
        <mxCell id="0" />
        <mxCell id="1" parent="0" />
        <mxCell id="0w1Ud0EYDVL3W0i89-8y-25" style="edgeStyle=orthogonalEdgeStyle;rounded=0;orthogonalLoop=1;jettySize=auto;html=1;entryX=0.5;entryY=0;entryDx=0;entryDy=0;" edge="1" parent="1" source="0w1Ud0EYDVL3W0i89-8y-1" target="0w1Ud0EYDVL3W0i89-8y-22">
          <mxGeometry relative="1" as="geometry" />
        </mxCell>
        <mxCell id="0w1Ud0EYDVL3W0i89-8y-26" style="edgeStyle=orthogonalEdgeStyle;rounded=0;orthogonalLoop=1;jettySize=auto;html=1;exitX=1;exitY=0.25;exitDx=0;exitDy=0;entryX=0;entryY=0.5;entryDx=0;entryDy=0;" edge="1" parent="1" source="0w1Ud0EYDVL3W0i89-8y-1" target="0w1Ud0EYDVL3W0i89-8y-17">
          <mxGeometry relative="1" as="geometry" />
        </mxCell>
        <mxCell id="0w1Ud0EYDVL3W0i89-8y-1" value="student" style="rounded=1;arcSize=10;whiteSpace=wrap;html=1;align=center;" vertex="1" parent="1">
          <mxGeometry x="-610" y="170" width="100" height="40" as="geometry" />
        </mxCell>
        <mxCell id="0w1Ud0EYDVL3W0i89-8y-3" style="edgeStyle=orthogonalEdgeStyle;rounded=0;orthogonalLoop=1;jettySize=auto;html=1;" edge="1" parent="1" source="0w1Ud0EYDVL3W0i89-8y-2" target="0w1Ud0EYDVL3W0i89-8y-1">
          <mxGeometry relative="1" as="geometry">
            <Array as="points">
              <mxPoint x="-580" y="130" />
            </Array>
          </mxGeometry>
        </mxCell>
        <mxCell id="0w1Ud0EYDVL3W0i89-8y-2" value="stu_id" style="ellipse;whiteSpace=wrap;html=1;align=center;fontStyle=4;" vertex="1" parent="1">
          <mxGeometry x="-750" y="110" width="100" height="40" as="geometry" />
        </mxCell>
        <mxCell id="0w1Ud0EYDVL3W0i89-8y-7" value="" style="edgeStyle=orthogonalEdgeStyle;rounded=0;orthogonalLoop=1;jettySize=auto;html=1;" edge="1" parent="1" source="0w1Ud0EYDVL3W0i89-8y-4" target="0w1Ud0EYDVL3W0i89-8y-6">
          <mxGeometry relative="1" as="geometry" />
        </mxCell>
        <mxCell id="0w1Ud0EYDVL3W0i89-8y-8" style="edgeStyle=orthogonalEdgeStyle;rounded=0;orthogonalLoop=1;jettySize=auto;html=1;" edge="1" parent="1" source="0w1Ud0EYDVL3W0i89-8y-4">
          <mxGeometry relative="1" as="geometry">
            <mxPoint x="-380" y="120" as="targetPoint" />
          </mxGeometry>
        </mxCell>
        <mxCell id="0w1Ud0EYDVL3W0i89-8y-11" style="edgeStyle=orthogonalEdgeStyle;rounded=0;orthogonalLoop=1;jettySize=auto;html=1;exitX=1;exitY=0;exitDx=0;exitDy=0;entryX=0;entryY=1;entryDx=0;entryDy=0;" edge="1" parent="1" source="0w1Ud0EYDVL3W0i89-8y-4" target="0w1Ud0EYDVL3W0i89-8y-10">
          <mxGeometry relative="1" as="geometry" />
        </mxCell>
        <mxCell id="0w1Ud0EYDVL3W0i89-8y-31" style="edgeStyle=orthogonalEdgeStyle;rounded=0;orthogonalLoop=1;jettySize=auto;html=1;exitX=0.5;exitY=1;exitDx=0;exitDy=0;entryX=0.75;entryY=0;entryDx=0;entryDy=0;" edge="1" parent="1" source="0w1Ud0EYDVL3W0i89-8y-4" target="0w1Ud0EYDVL3W0i89-8y-1">
          <mxGeometry relative="1" as="geometry">
            <Array as="points">
              <mxPoint x="-535" y="150" />
            </Array>
          </mxGeometry>
        </mxCell>
        <mxCell id="0w1Ud0EYDVL3W0i89-8y-4" value="stud_name" style="ellipse;whiteSpace=wrap;html=1;align=center;" vertex="1" parent="1">
          <mxGeometry x="-520" y="90" width="100" height="40" as="geometry" />
        </mxCell>
        <mxCell id="0w1Ud0EYDVL3W0i89-8y-6" value="first_name" style="ellipse;whiteSpace=wrap;html=1;align=center;" vertex="1" parent="1">
          <mxGeometry x="-513" y="10" width="100" height="40" as="geometry" />
        </mxCell>
        <mxCell id="0w1Ud0EYDVL3W0i89-8y-9" value="last_name" style="ellipse;whiteSpace=wrap;html=1;align=center;" vertex="1" parent="1">
          <mxGeometry x="-380" y="100" width="100" height="40" as="geometry" />
        </mxCell>
        <mxCell id="0w1Ud0EYDVL3W0i89-8y-10" value="med_name" style="ellipse;whiteSpace=wrap;html=1;align=center;" vertex="1" parent="1">
          <mxGeometry x="-420" y="50" width="110" height="30" as="geometry" />
        </mxCell>
        <mxCell id="0w1Ud0EYDVL3W0i89-8y-13" style="edgeStyle=orthogonalEdgeStyle;rounded=0;orthogonalLoop=1;jettySize=auto;html=1;entryX=0;entryY=0.75;entryDx=0;entryDy=0;" edge="1" parent="1" source="0w1Ud0EYDVL3W0i89-8y-12" target="0w1Ud0EYDVL3W0i89-8y-1">
          <mxGeometry relative="1" as="geometry" />
        </mxCell>
        <mxCell id="0w1Ud0EYDVL3W0i89-8y-12" value="email" style="ellipse;whiteSpace=wrap;html=1;align=center;" vertex="1" parent="1">
          <mxGeometry x="-810" y="160" width="80" height="40" as="geometry" />
        </mxCell>
        <mxCell id="0w1Ud0EYDVL3W0i89-8y-16" style="edgeStyle=orthogonalEdgeStyle;rounded=0;orthogonalLoop=1;jettySize=auto;html=1;exitX=0.5;exitY=0;exitDx=0;exitDy=0;entryX=0.5;entryY=1;entryDx=0;entryDy=0;" edge="1" parent="1" source="0w1Ud0EYDVL3W0i89-8y-15" target="0w1Ud0EYDVL3W0i89-8y-1">
          <mxGeometry relative="1" as="geometry" />
        </mxCell>
        <mxCell id="0w1Ud0EYDVL3W0i89-8y-15" value="phone" style="ellipse;shape=doubleEllipse;margin=3;whiteSpace=wrap;html=1;align=center;" vertex="1" parent="1">
          <mxGeometry x="-620" y="270" width="100" height="40" as="geometry" />
        </mxCell>
        <mxCell id="0w1Ud0EYDVL3W0i89-8y-17" value="age" style="ellipse;whiteSpace=wrap;html=1;align=center;dashed=1;" vertex="1" parent="1">
          <mxGeometry x="-440" y="160" width="100" height="40" as="geometry" />
        </mxCell>
        <mxCell id="0w1Ud0EYDVL3W0i89-8y-22" value="birth_date" style="ellipse;whiteSpace=wrap;html=1;align=center;" vertex="1" parent="1">
          <mxGeometry x="-496" y="220" width="100" height="40" as="geometry" />
        </mxCell>
        <mxCell id="0w1Ud0EYDVL3W0i89-8y-28" style="edgeStyle=orthogonalEdgeStyle;rounded=0;orthogonalLoop=1;jettySize=auto;html=1;entryX=0;entryY=1;entryDx=0;entryDy=0;" edge="1" parent="1" source="0w1Ud0EYDVL3W0i89-8y-27" target="0w1Ud0EYDVL3W0i89-8y-1">
          <mxGeometry relative="1" as="geometry" />
        </mxCell>
        <mxCell id="0w1Ud0EYDVL3W0i89-8y-27" value="dep_id" style="ellipse;whiteSpace=wrap;html=1;align=center;" vertex="1" parent="1">
          <mxGeometry x="-770" y="230" width="100" height="50" as="geometry" />
        </mxCell>
        <mxCell id="0w1Ud0EYDVL3W0i89-8y-32" style="edgeStyle=orthogonalEdgeStyle;rounded=0;orthogonalLoop=1;jettySize=auto;html=1;entryX=0.394;entryY=-0.03;entryDx=0;entryDy=0;entryPerimeter=0;" edge="1" parent="1" source="0w1Ud0EYDVL3W0i89-8y-30" target="0w1Ud0EYDVL3W0i89-8y-1">
          <mxGeometry relative="1" as="geometry">
            <mxPoint x="-560" y="170" as="targetPoint" />
          </mxGeometry>
        </mxCell>
        <mxCell id="0w1Ud0EYDVL3W0i89-8y-30" value="major" style="ellipse;whiteSpace=wrap;html=1;align=center;" vertex="1" parent="1">
          <mxGeometry x="-640" y="20" width="100" height="40" as="geometry" />
        </mxCell>
        <mxCell id="0w1Ud0EYDVL3W0i89-8y-38" style="edgeStyle=orthogonalEdgeStyle;rounded=0;orthogonalLoop=1;jettySize=auto;html=1;entryX=0.5;entryY=0;entryDx=0;entryDy=0;" edge="1" parent="1" source="0w1Ud0EYDVL3W0i89-8y-40" target="0w1Ud0EYDVL3W0i89-8y-56">
          <mxGeometry relative="1" as="geometry" />
        </mxCell>
        <mxCell id="0w1Ud0EYDVL3W0i89-8y-39" style="edgeStyle=orthogonalEdgeStyle;rounded=0;orthogonalLoop=1;jettySize=auto;html=1;exitX=1;exitY=0.25;exitDx=0;exitDy=0;entryX=0;entryY=0.5;entryDx=0;entryDy=0;" edge="1" parent="1" source="0w1Ud0EYDVL3W0i89-8y-40" target="0w1Ud0EYDVL3W0i89-8y-55">
          <mxGeometry relative="1" as="geometry" />
        </mxCell>
        <mxCell id="0w1Ud0EYDVL3W0i89-8y-63" style="edgeStyle=orthogonalEdgeStyle;rounded=0;orthogonalLoop=1;jettySize=auto;html=1;" edge="1" parent="1" source="0w1Ud0EYDVL3W0i89-8y-40">
          <mxGeometry relative="1" as="geometry">
            <mxPoint x="313" y="130" as="targetPoint" />
          </mxGeometry>
        </mxCell>
        <mxCell id="0w1Ud0EYDVL3W0i89-8y-40" value="Teacher" style="rounded=1;arcSize=10;whiteSpace=wrap;html=1;align=center;" vertex="1" parent="1">
          <mxGeometry x="270" y="200" width="100" height="40" as="geometry" />
        </mxCell>
        <mxCell id="0w1Ud0EYDVL3W0i89-8y-41" style="edgeStyle=orthogonalEdgeStyle;rounded=0;orthogonalLoop=1;jettySize=auto;html=1;" edge="1" parent="1" source="0w1Ud0EYDVL3W0i89-8y-42" target="0w1Ud0EYDVL3W0i89-8y-40">
          <mxGeometry relative="1" as="geometry">
            <Array as="points">
              <mxPoint x="300" y="160" />
            </Array>
          </mxGeometry>
        </mxCell>
        <mxCell id="0w1Ud0EYDVL3W0i89-8y-42" value="teach_id" style="ellipse;whiteSpace=wrap;html=1;align=center;fontStyle=4;" vertex="1" parent="1">
          <mxGeometry x="130" y="140" width="100" height="40" as="geometry" />
        </mxCell>
        <mxCell id="0w1Ud0EYDVL3W0i89-8y-43" value="" style="edgeStyle=orthogonalEdgeStyle;rounded=0;orthogonalLoop=1;jettySize=auto;html=1;" edge="1" parent="1" source="0w1Ud0EYDVL3W0i89-8y-47" target="0w1Ud0EYDVL3W0i89-8y-48">
          <mxGeometry relative="1" as="geometry" />
        </mxCell>
        <mxCell id="0w1Ud0EYDVL3W0i89-8y-44" style="edgeStyle=orthogonalEdgeStyle;rounded=0;orthogonalLoop=1;jettySize=auto;html=1;" edge="1" parent="1" source="0w1Ud0EYDVL3W0i89-8y-47">
          <mxGeometry relative="1" as="geometry">
            <mxPoint x="500" y="150" as="targetPoint" />
          </mxGeometry>
        </mxCell>
        <mxCell id="0w1Ud0EYDVL3W0i89-8y-45" style="edgeStyle=orthogonalEdgeStyle;rounded=0;orthogonalLoop=1;jettySize=auto;html=1;exitX=1;exitY=0;exitDx=0;exitDy=0;entryX=0;entryY=1;entryDx=0;entryDy=0;" edge="1" parent="1" source="0w1Ud0EYDVL3W0i89-8y-47">
          <mxGeometry relative="1" as="geometry">
            <mxPoint x="475.6746332042908" y="105.48676447885578" as="targetPoint" />
          </mxGeometry>
        </mxCell>
        <mxCell id="0w1Ud0EYDVL3W0i89-8y-46" style="edgeStyle=orthogonalEdgeStyle;rounded=0;orthogonalLoop=1;jettySize=auto;html=1;exitX=0.5;exitY=1;exitDx=0;exitDy=0;entryX=0.75;entryY=0;entryDx=0;entryDy=0;" edge="1" parent="1" source="0w1Ud0EYDVL3W0i89-8y-47" target="0w1Ud0EYDVL3W0i89-8y-40">
          <mxGeometry relative="1" as="geometry">
            <Array as="points">
              <mxPoint x="345" y="180" />
            </Array>
          </mxGeometry>
        </mxCell>
        <mxCell id="0w1Ud0EYDVL3W0i89-8y-47" value="teach_name" style="ellipse;whiteSpace=wrap;html=1;align=center;" vertex="1" parent="1">
          <mxGeometry x="360" y="120" width="100" height="40" as="geometry" />
        </mxCell>
        <mxCell id="0w1Ud0EYDVL3W0i89-8y-48" value="first_name" style="ellipse;whiteSpace=wrap;html=1;align=center;" vertex="1" parent="1">
          <mxGeometry x="330" y="40" width="100" height="40" as="geometry" />
        </mxCell>
        <mxCell id="0w1Ud0EYDVL3W0i89-8y-49" value="last_name" style="ellipse;whiteSpace=wrap;html=1;align=center;" vertex="1" parent="1">
          <mxGeometry x="160" y="360" width="100" height="40" as="geometry" />
        </mxCell>
        <mxCell id="0w1Ud0EYDVL3W0i89-8y-50" value="med_name" style="ellipse;whiteSpace=wrap;html=1;align=center;" vertex="1" parent="1">
          <mxGeometry x="120" y="310" width="110" height="30" as="geometry" />
        </mxCell>
        <mxCell id="0w1Ud0EYDVL3W0i89-8y-51" style="edgeStyle=orthogonalEdgeStyle;rounded=0;orthogonalLoop=1;jettySize=auto;html=1;entryX=0;entryY=0.75;entryDx=0;entryDy=0;" edge="1" parent="1" source="0w1Ud0EYDVL3W0i89-8y-52" target="0w1Ud0EYDVL3W0i89-8y-40">
          <mxGeometry relative="1" as="geometry" />
        </mxCell>
        <mxCell id="0w1Ud0EYDVL3W0i89-8y-52" value="email" style="ellipse;whiteSpace=wrap;html=1;align=center;" vertex="1" parent="1">
          <mxGeometry x="70" y="190" width="80" height="40" as="geometry" />
        </mxCell>
        <mxCell id="0w1Ud0EYDVL3W0i89-8y-53" style="edgeStyle=orthogonalEdgeStyle;rounded=0;orthogonalLoop=1;jettySize=auto;html=1;exitX=0.5;exitY=0;exitDx=0;exitDy=0;entryX=0.5;entryY=1;entryDx=0;entryDy=0;" edge="1" parent="1" source="0w1Ud0EYDVL3W0i89-8y-54" target="0w1Ud0EYDVL3W0i89-8y-40">
          <mxGeometry relative="1" as="geometry" />
        </mxCell>
        <mxCell id="0w1Ud0EYDVL3W0i89-8y-54" value="phone" style="ellipse;shape=doubleEllipse;margin=3;whiteSpace=wrap;html=1;align=center;" vertex="1" parent="1">
          <mxGeometry x="223" y="320" width="100" height="40" as="geometry" />
        </mxCell>
        <mxCell id="0w1Ud0EYDVL3W0i89-8y-55" value="age" style="ellipse;whiteSpace=wrap;html=1;align=center;dashed=1;" vertex="1" parent="1">
          <mxGeometry x="440" y="190" width="100" height="40" as="geometry" />
        </mxCell>
        <mxCell id="0w1Ud0EYDVL3W0i89-8y-56" value="birth_date" style="ellipse;whiteSpace=wrap;html=1;align=center;" vertex="1" parent="1">
          <mxGeometry x="384" y="250" width="100" height="40" as="geometry" />
        </mxCell>
        <mxCell id="0w1Ud0EYDVL3W0i89-8y-57" style="edgeStyle=orthogonalEdgeStyle;rounded=0;orthogonalLoop=1;jettySize=auto;html=1;entryX=0.25;entryY=1;entryDx=0;entryDy=0;" edge="1" parent="1" source="0w1Ud0EYDVL3W0i89-8y-58" target="0w1Ud0EYDVL3W0i89-8y-40">
          <mxGeometry relative="1" as="geometry">
            <Array as="points">
              <mxPoint x="270" y="270" />
              <mxPoint x="270" y="240" />
            </Array>
          </mxGeometry>
        </mxCell>
        <mxCell id="0w1Ud0EYDVL3W0i89-8y-58" value="dep_id" style="ellipse;whiteSpace=wrap;html=1;align=center;" vertex="1" parent="1">
          <mxGeometry x="83" y="260" width="100" height="50" as="geometry" />
        </mxCell>
        <mxCell id="0w1Ud0EYDVL3W0i89-8y-65" value="office" style="ellipse;whiteSpace=wrap;html=1;align=center;" vertex="1" parent="1">
          <mxGeometry x="243" y="90" width="100" height="40" as="geometry" />
        </mxCell>
        <mxCell id="0w1Ud0EYDVL3W0i89-8y-70" style="edgeStyle=orthogonalEdgeStyle;rounded=0;orthogonalLoop=1;jettySize=auto;html=1;exitX=0.5;exitY=1;exitDx=0;exitDy=0;entryX=0;entryY=0;entryDx=0;entryDy=0;" edge="1" parent="1" source="0w1Ud0EYDVL3W0i89-8y-66" target="0w1Ud0EYDVL3W0i89-8y-65">
          <mxGeometry relative="1" as="geometry" />
        </mxCell>
        <mxCell id="0w1Ud0EYDVL3W0i89-8y-66" value="office_num" style="ellipse;whiteSpace=wrap;html=1;align=center;" vertex="1" parent="1">
          <mxGeometry x="103" y="10" width="100" height="40" as="geometry" />
        </mxCell>
        <mxCell id="0w1Ud0EYDVL3W0i89-8y-170" style="edgeStyle=orthogonalEdgeStyle;rounded=0;orthogonalLoop=1;jettySize=auto;html=1;exitX=0.5;exitY=1;exitDx=0;exitDy=0;entryX=0.5;entryY=0;entryDx=0;entryDy=0;" edge="1" parent="1" source="0w1Ud0EYDVL3W0i89-8y-67" target="0w1Ud0EYDVL3W0i89-8y-65">
          <mxGeometry relative="1" as="geometry" />
        </mxCell>
        <mxCell id="0w1Ud0EYDVL3W0i89-8y-67" value="office_hour" style="ellipse;whiteSpace=wrap;html=1;align=center;" vertex="1" parent="1">
          <mxGeometry x="220" width="100" height="50" as="geometry" />
        </mxCell>
        <mxCell id="0w1Ud0EYDVL3W0i89-8y-73" value="course" style="rounded=1;arcSize=10;whiteSpace=wrap;html=1;align=center;" vertex="1" parent="1">
          <mxGeometry x="-590" y="560" width="100" height="40" as="geometry" />
        </mxCell>
        <mxCell id="0w1Ud0EYDVL3W0i89-8y-74" style="edgeStyle=orthogonalEdgeStyle;rounded=0;orthogonalLoop=1;jettySize=auto;html=1;" edge="1" parent="1" source="0w1Ud0EYDVL3W0i89-8y-75" target="0w1Ud0EYDVL3W0i89-8y-73">
          <mxGeometry relative="1" as="geometry">
            <Array as="points">
              <mxPoint x="-560" y="520" />
            </Array>
          </mxGeometry>
        </mxCell>
        <mxCell id="0w1Ud0EYDVL3W0i89-8y-75" value="course_id" style="ellipse;whiteSpace=wrap;html=1;align=center;fontStyle=4;" vertex="1" parent="1">
          <mxGeometry x="-730" y="500" width="100" height="40" as="geometry" />
        </mxCell>
        <mxCell id="0w1Ud0EYDVL3W0i89-8y-84" style="edgeStyle=orthogonalEdgeStyle;rounded=0;orthogonalLoop=1;jettySize=auto;html=1;entryX=0;entryY=0.75;entryDx=0;entryDy=0;" edge="1" parent="1" source="0w1Ud0EYDVL3W0i89-8y-85" target="0w1Ud0EYDVL3W0i89-8y-73">
          <mxGeometry relative="1" as="geometry" />
        </mxCell>
        <mxCell id="0w1Ud0EYDVL3W0i89-8y-85" value="email" style="ellipse;whiteSpace=wrap;html=1;align=center;" vertex="1" parent="1">
          <mxGeometry x="-790" y="550" width="80" height="40" as="geometry" />
        </mxCell>
        <mxCell id="0w1Ud0EYDVL3W0i89-8y-90" style="edgeStyle=orthogonalEdgeStyle;rounded=0;orthogonalLoop=1;jettySize=auto;html=1;entryX=0;entryY=1;entryDx=0;entryDy=0;" edge="1" parent="1" source="0w1Ud0EYDVL3W0i89-8y-91" target="0w1Ud0EYDVL3W0i89-8y-73">
          <mxGeometry relative="1" as="geometry">
            <Array as="points">
              <mxPoint x="-590" y="640" />
            </Array>
          </mxGeometry>
        </mxCell>
        <mxCell id="0w1Ud0EYDVL3W0i89-8y-91" value="teach_id" style="ellipse;whiteSpace=wrap;html=1;align=center;" vertex="1" parent="1">
          <mxGeometry x="-750" y="620" width="100" height="50" as="geometry" />
        </mxCell>
        <mxCell id="0w1Ud0EYDVL3W0i89-8y-96" style="edgeStyle=orthogonalEdgeStyle;rounded=0;orthogonalLoop=1;jettySize=auto;html=1;entryX=0.75;entryY=1;entryDx=0;entryDy=0;" edge="1" parent="1" source="0w1Ud0EYDVL3W0i89-8y-94" target="0w1Ud0EYDVL3W0i89-8y-40">
          <mxGeometry relative="1" as="geometry" />
        </mxCell>
        <mxCell id="0w1Ud0EYDVL3W0i89-8y-94" value="hire_date" style="ellipse;whiteSpace=wrap;html=1;align=center;" vertex="1" parent="1">
          <mxGeometry x="330" y="320" width="100" height="40" as="geometry" />
        </mxCell>
        <mxCell id="0w1Ud0EYDVL3W0i89-8y-98" value="dep_id" style="ellipse;whiteSpace=wrap;html=1;align=center;" vertex="1" parent="1">
          <mxGeometry x="-500" y="460" width="100" height="50" as="geometry" />
        </mxCell>
        <mxCell id="0w1Ud0EYDVL3W0i89-8y-99" style="edgeStyle=orthogonalEdgeStyle;rounded=0;orthogonalLoop=1;jettySize=auto;html=1;entryX=0.662;entryY=-0.086;entryDx=0;entryDy=0;entryPerimeter=0;" edge="1" parent="1" source="0w1Ud0EYDVL3W0i89-8y-98" target="0w1Ud0EYDVL3W0i89-8y-73">
          <mxGeometry relative="1" as="geometry" />
        </mxCell>
        <mxCell id="0w1Ud0EYDVL3W0i89-8y-101" style="edgeStyle=orthogonalEdgeStyle;rounded=0;orthogonalLoop=1;jettySize=auto;html=1;entryX=0.5;entryY=0;entryDx=0;entryDy=0;" edge="1" parent="1" source="0w1Ud0EYDVL3W0i89-8y-100" target="0w1Ud0EYDVL3W0i89-8y-73">
          <mxGeometry relative="1" as="geometry" />
        </mxCell>
        <mxCell id="0w1Ud0EYDVL3W0i89-8y-100" value="course_name" style="ellipse;whiteSpace=wrap;html=1;align=center;" vertex="1" parent="1">
          <mxGeometry x="-600" y="440" width="100" height="40" as="geometry" />
        </mxCell>
        <mxCell id="0w1Ud0EYDVL3W0i89-8y-105" style="edgeStyle=orthogonalEdgeStyle;rounded=0;orthogonalLoop=1;jettySize=auto;html=1;entryX=0;entryY=0.75;entryDx=0;entryDy=0;" edge="1" parent="1" source="0w1Ud0EYDVL3W0i89-8y-106">
          <mxGeometry relative="1" as="geometry">
            <mxPoint x="-230" y="999.9999999999998" as="targetPoint" />
          </mxGeometry>
        </mxCell>
        <mxCell id="0w1Ud0EYDVL3W0i89-8y-106" value="email" style="ellipse;whiteSpace=wrap;html=1;align=center;" vertex="1" parent="1">
          <mxGeometry x="-390" y="1000" width="80" height="40" as="geometry" />
        </mxCell>
        <mxCell id="0w1Ud0EYDVL3W0i89-8y-113" value="section&amp;nbsp;" style="shape=ext;margin=3;double=1;whiteSpace=wrap;html=1;align=center;" vertex="1" parent="1">
          <mxGeometry x="-230" y="975" width="100" height="40" as="geometry" />
        </mxCell>
        <mxCell id="0w1Ud0EYDVL3W0i89-8y-128" style="edgeStyle=orthogonalEdgeStyle;rounded=0;orthogonalLoop=1;jettySize=auto;html=1;entryX=0.75;entryY=1;entryDx=0;entryDy=0;" edge="1" parent="1" source="0w1Ud0EYDVL3W0i89-8y-118" target="0w1Ud0EYDVL3W0i89-8y-113">
          <mxGeometry relative="1" as="geometry" />
        </mxCell>
        <mxCell id="0w1Ud0EYDVL3W0i89-8y-118" value="course_name" style="ellipse;whiteSpace=wrap;html=1;align=center;" vertex="1" parent="1">
          <mxGeometry x="-153" y="1040" width="100" height="40" as="geometry" />
        </mxCell>
        <mxCell id="0w1Ud0EYDVL3W0i89-8y-129" style="edgeStyle=orthogonalEdgeStyle;rounded=0;orthogonalLoop=1;jettySize=auto;html=1;entryX=1;entryY=0.75;entryDx=0;entryDy=0;" edge="1" parent="1" source="0w1Ud0EYDVL3W0i89-8y-121" target="0w1Ud0EYDVL3W0i89-8y-113">
          <mxGeometry relative="1" as="geometry" />
        </mxCell>
        <mxCell id="0w1Ud0EYDVL3W0i89-8y-121" value="time\date" style="ellipse;whiteSpace=wrap;html=1;align=center;" vertex="1" parent="1">
          <mxGeometry x="-70" y="970" width="100" height="40" as="geometry" />
        </mxCell>
        <mxCell id="0w1Ud0EYDVL3W0i89-8y-124" style="edgeStyle=orthogonalEdgeStyle;rounded=0;orthogonalLoop=1;jettySize=auto;html=1;entryX=0.5;entryY=1;entryDx=0;entryDy=0;" edge="1" parent="1" source="0w1Ud0EYDVL3W0i89-8y-122" target="0w1Ud0EYDVL3W0i89-8y-113">
          <mxGeometry relative="1" as="geometry" />
        </mxCell>
        <mxCell id="0w1Ud0EYDVL3W0i89-8y-122" value="time\date" style="ellipse;whiteSpace=wrap;html=1;align=center;" vertex="1" parent="1">
          <mxGeometry x="-230" y="1080" width="100" height="40" as="geometry" />
        </mxCell>
        <mxCell id="0w1Ud0EYDVL3W0i89-8y-131" style="edgeStyle=orthogonalEdgeStyle;rounded=0;orthogonalLoop=1;jettySize=auto;html=1;" edge="1" parent="1" source="0w1Ud0EYDVL3W0i89-8y-130">
          <mxGeometry relative="1" as="geometry">
            <mxPoint x="-220" y="1015" as="targetPoint" />
            <Array as="points">
              <mxPoint x="-310" y="1045" />
              <mxPoint x="-220" y="1045" />
            </Array>
          </mxGeometry>
        </mxCell>
        <mxCell id="0w1Ud0EYDVL3W0i89-8y-130" value="classroom" style="ellipse;whiteSpace=wrap;html=1;align=center;" vertex="1" parent="1">
          <mxGeometry x="-360" y="1065" width="100" height="40" as="geometry" />
        </mxCell>
        <mxCell id="0w1Ud0EYDVL3W0i89-8y-132" value="registration" style="rounded=1;arcSize=10;whiteSpace=wrap;html=1;align=center;movable=1;resizable=1;rotatable=1;deletable=1;editable=1;locked=0;connectable=1;" vertex="1" parent="1">
          <mxGeometry x="-610" y="840" width="100" height="40" as="geometry" />
        </mxCell>
        <mxCell id="0w1Ud0EYDVL3W0i89-8y-133" style="edgeStyle=orthogonalEdgeStyle;rounded=0;orthogonalLoop=1;jettySize=auto;html=1;movable=1;resizable=1;rotatable=1;deletable=1;editable=1;locked=0;connectable=1;" edge="1" parent="1" source="0w1Ud0EYDVL3W0i89-8y-134" target="0w1Ud0EYDVL3W0i89-8y-132">
          <mxGeometry relative="1" as="geometry">
            <Array as="points">
              <mxPoint x="-580" y="800" />
            </Array>
          </mxGeometry>
        </mxCell>
        <mxCell id="0w1Ud0EYDVL3W0i89-8y-134" value="reg_id" style="ellipse;whiteSpace=wrap;html=1;align=center;fontStyle=4;movable=1;resizable=1;rotatable=1;deletable=1;editable=1;locked=0;connectable=1;" vertex="1" parent="1">
          <mxGeometry x="-750" y="780" width="100" height="40" as="geometry" />
        </mxCell>
        <mxCell id="0w1Ud0EYDVL3W0i89-8y-135" style="edgeStyle=orthogonalEdgeStyle;rounded=0;orthogonalLoop=1;jettySize=auto;html=1;entryX=0;entryY=0.75;entryDx=0;entryDy=0;movable=1;resizable=1;rotatable=1;deletable=1;editable=1;locked=0;connectable=1;" edge="1" parent="1" target="0w1Ud0EYDVL3W0i89-8y-132">
          <mxGeometry relative="1" as="geometry">
            <mxPoint x="-730" y="850.0000000000002" as="sourcePoint" />
          </mxGeometry>
        </mxCell>
        <mxCell id="0w1Ud0EYDVL3W0i89-8y-136" value="sec_id" style="ellipse;whiteSpace=wrap;html=1;align=center;movable=1;resizable=1;rotatable=1;deletable=1;editable=1;locked=0;connectable=1;" vertex="1" parent="1">
          <mxGeometry x="-800" y="830" width="80" height="40" as="geometry" />
        </mxCell>
        <mxCell id="0w1Ud0EYDVL3W0i89-8y-137" style="edgeStyle=orthogonalEdgeStyle;rounded=0;orthogonalLoop=1;jettySize=auto;html=1;entryX=0;entryY=1;entryDx=0;entryDy=0;movable=1;resizable=1;rotatable=1;deletable=1;editable=1;locked=0;connectable=1;" edge="1" parent="1" target="0w1Ud0EYDVL3W0i89-8y-132">
          <mxGeometry relative="1" as="geometry">
            <Array as="points">
              <mxPoint x="-610" y="920" />
            </Array>
            <mxPoint x="-671.0102051443364" y="920.0000000000002" as="sourcePoint" />
          </mxGeometry>
        </mxCell>
        <mxCell id="0w1Ud0EYDVL3W0i89-8y-139" value="stud_id" style="ellipse;whiteSpace=wrap;html=1;align=center;movable=1;resizable=1;rotatable=1;deletable=1;editable=1;locked=0;connectable=1;" vertex="1" parent="1">
          <mxGeometry x="-520" y="740" width="100" height="50" as="geometry" />
        </mxCell>
        <mxCell id="0w1Ud0EYDVL3W0i89-8y-140" style="edgeStyle=orthogonalEdgeStyle;rounded=0;orthogonalLoop=1;jettySize=auto;html=1;entryX=0.662;entryY=-0.086;entryDx=0;entryDy=0;entryPerimeter=0;movable=1;resizable=1;rotatable=1;deletable=1;editable=1;locked=0;connectable=1;" edge="1" parent="1" source="0w1Ud0EYDVL3W0i89-8y-139" target="0w1Ud0EYDVL3W0i89-8y-132">
          <mxGeometry relative="1" as="geometry" />
        </mxCell>
        <mxCell id="0w1Ud0EYDVL3W0i89-8y-141" style="edgeStyle=orthogonalEdgeStyle;rounded=0;orthogonalLoop=1;jettySize=auto;html=1;entryX=0.5;entryY=0;entryDx=0;entryDy=0;movable=1;resizable=1;rotatable=1;deletable=1;editable=1;locked=0;connectable=1;" edge="1" parent="1" source="0w1Ud0EYDVL3W0i89-8y-142" target="0w1Ud0EYDVL3W0i89-8y-132">
          <mxGeometry relative="1" as="geometry" />
        </mxCell>
        <mxCell id="0w1Ud0EYDVL3W0i89-8y-142" value="grade" style="ellipse;whiteSpace=wrap;html=1;align=center;movable=1;resizable=1;rotatable=1;deletable=1;editable=1;locked=0;connectable=1;" vertex="1" parent="1">
          <mxGeometry x="-620" y="720" width="100" height="40" as="geometry" />
        </mxCell>
        <mxCell id="0w1Ud0EYDVL3W0i89-8y-143" value="status" style="ellipse;whiteSpace=wrap;html=1;align=center;movable=1;resizable=1;rotatable=1;deletable=1;editable=1;locked=0;connectable=1;" vertex="1" parent="1">
          <mxGeometry x="-620" y="930" width="100" height="50" as="geometry" />
        </mxCell>
        <mxCell id="0w1Ud0EYDVL3W0i89-8y-144" style="edgeStyle=orthogonalEdgeStyle;rounded=0;orthogonalLoop=1;jettySize=auto;html=1;entryX=0.411;entryY=0.988;entryDx=0;entryDy=0;entryPerimeter=0;movable=1;resizable=1;rotatable=1;deletable=1;editable=1;locked=0;connectable=1;" edge="1" parent="1" source="0w1Ud0EYDVL3W0i89-8y-143" target="0w1Ud0EYDVL3W0i89-8y-132">
          <mxGeometry relative="1" as="geometry" />
        </mxCell>
        <mxCell id="0w1Ud0EYDVL3W0i89-8y-147" value="date" style="ellipse;whiteSpace=wrap;html=1;align=center;movable=1;resizable=1;rotatable=1;deletable=1;editable=1;locked=0;connectable=1;" vertex="1" parent="1">
          <mxGeometry x="-750" y="900" width="100" height="40" as="geometry" />
        </mxCell>
        <mxCell id="0w1Ud0EYDVL3W0i89-8y-165" style="edgeStyle=orthogonalEdgeStyle;rounded=0;orthogonalLoop=1;jettySize=auto;html=1;entryX=0;entryY=0.5;entryDx=0;entryDy=0;" edge="1" parent="1" source="0w1Ud0EYDVL3W0i89-8y-149" target="0w1Ud0EYDVL3W0i89-8y-161">
          <mxGeometry relative="1" as="geometry" />
        </mxCell>
        <mxCell id="0w1Ud0EYDVL3W0i89-8y-149" value="stu_id" style="ellipse;whiteSpace=wrap;html=1;align=center;" vertex="1" parent="1">
          <mxGeometry x="-370" y="550" width="80" height="40" as="geometry" />
        </mxCell>
        <mxCell id="0w1Ud0EYDVL3W0i89-8y-168" style="edgeStyle=orthogonalEdgeStyle;rounded=0;orthogonalLoop=1;jettySize=auto;html=1;exitX=0.5;exitY=0;exitDx=0;exitDy=0;entryX=1;entryY=0.75;entryDx=0;entryDy=0;" edge="1" parent="1" source="0w1Ud0EYDVL3W0i89-8y-152" target="0w1Ud0EYDVL3W0i89-8y-161">
          <mxGeometry relative="1" as="geometry" />
        </mxCell>
        <mxCell id="0w1Ud0EYDVL3W0i89-8y-152" value="course_name" style="ellipse;whiteSpace=wrap;html=1;align=center;" vertex="1" parent="1">
          <mxGeometry x="-133" y="590" width="100" height="40" as="geometry" />
        </mxCell>
        <mxCell id="0w1Ud0EYDVL3W0i89-8y-167" style="edgeStyle=orthogonalEdgeStyle;rounded=0;orthogonalLoop=1;jettySize=auto;html=1;entryX=0.5;entryY=1;entryDx=0;entryDy=0;" edge="1" parent="1" source="0w1Ud0EYDVL3W0i89-8y-156" target="0w1Ud0EYDVL3W0i89-8y-161">
          <mxGeometry relative="1" as="geometry" />
        </mxCell>
        <mxCell id="0w1Ud0EYDVL3W0i89-8y-156" value="course_id" style="ellipse;whiteSpace=wrap;html=1;align=center;" vertex="1" parent="1">
          <mxGeometry x="-210" y="630" width="100" height="40" as="geometry" />
        </mxCell>
        <mxCell id="0w1Ud0EYDVL3W0i89-8y-166" style="edgeStyle=orthogonalEdgeStyle;rounded=0;orthogonalLoop=1;jettySize=auto;html=1;entryX=0;entryY=1;entryDx=0;entryDy=0;" edge="1" parent="1" source="0w1Ud0EYDVL3W0i89-8y-158" target="0w1Ud0EYDVL3W0i89-8y-161">
          <mxGeometry relative="1" as="geometry">
            <Array as="points">
              <mxPoint x="-290" y="590" />
              <mxPoint x="-210" y="590" />
            </Array>
          </mxGeometry>
        </mxCell>
        <mxCell id="0w1Ud0EYDVL3W0i89-8y-158" value="teach_name" style="ellipse;whiteSpace=wrap;html=1;align=center;" vertex="1" parent="1">
          <mxGeometry x="-340" y="615" width="100" height="40" as="geometry" />
        </mxCell>
        <mxCell id="0w1Ud0EYDVL3W0i89-8y-161" value="table" style="rounded=1;arcSize=10;whiteSpace=wrap;html=1;align=center;" vertex="1" parent="1">
          <mxGeometry x="-210" y="530" width="100" height="40" as="geometry" />
        </mxCell>
        <mxCell id="0w1Ud0EYDVL3W0i89-8y-169" style="edgeStyle=orthogonalEdgeStyle;rounded=0;orthogonalLoop=1;jettySize=auto;html=1;" edge="1" parent="1">
          <mxGeometry relative="1" as="geometry">
            <mxPoint x="-137" y="529.5294117647059" as="targetPoint" />
            <mxPoint x="-27" y="470" as="sourcePoint" />
          </mxGeometry>
        </mxCell>
        <mxCell id="0w1Ud0EYDVL3W0i89-8y-162" value="section_num" style="ellipse;whiteSpace=wrap;html=1;align=center;" vertex="1" parent="1">
          <mxGeometry x="-50" y="440" width="100" height="40" as="geometry" />
        </mxCell>
        <mxCell id="0w1Ud0EYDVL3W0i89-8y-164" style="edgeStyle=orthogonalEdgeStyle;rounded=0;orthogonalLoop=1;jettySize=auto;html=1;entryX=0.5;entryY=0;entryDx=0;entryDy=0;" edge="1" parent="1" source="0w1Ud0EYDVL3W0i89-8y-163" target="0w1Ud0EYDVL3W0i89-8y-161">
          <mxGeometry relative="1" as="geometry" />
        </mxCell>
        <mxCell id="0w1Ud0EYDVL3W0i89-8y-163" value="classroom" style="ellipse;whiteSpace=wrap;html=1;align=center;" vertex="1" parent="1">
          <mxGeometry x="-257" y="440" width="100" height="40" as="geometry" />
        </mxCell>
      </root>
    </mxGraphModel>
  </diagram>
</mxfile>
